<?xml version="1.0" encoding="UTF-8" standalone="no"?>
<!DOCTYPE svg PUBLIC "-//W3C//DTD SVG 1.1//EN"
 "http://www.w3.org/Graphics/SVG/1.1/DTD/svg11.dtd">
<!-- Generated by graphviz version 2.40.1 (20161225.0304)
 -->
<!-- Title: G Pages: 1 -->
<svg width="754pt" height="388pt"
 viewBox="0.00 0.00 754.40 388.00" xmlns="http://www.w3.org/2000/svg" xmlns:xlink="http://www.w3.org/1999/xlink">
<g id="graph0" class="graph" transform="scale(1 1) rotate(0) translate(4 384)">
<title>G</title>
<polygon fill="#ffffff" stroke="transparent" points="-4,4 -4,-384 750.398,-384 750.398,4 -4,4"/>
<!-- A0 -->
<g id="node1" class="node">
<title>A0</title>
<polygon fill="none" stroke="#000000" points="203.0728,-380 145.1592,-380 145.1592,-344 203.0728,-344 203.0728,-380"/>
<text text-anchor="middle" x="174.116" y="-359" font-family="Helvetica,sans-Serif" font-size="10.00" fill="#000000">launch</text>
</g>
<!-- A1 -->
<g id="node2" class="node">
<title>A1</title>
<polygon fill="none" stroke="#000000" points="201.116,-294 147.116,-294 147.116,-258 201.116,-258 201.116,-294"/>
<text text-anchor="middle" x="174.116" y="-273" font-family="Helvetica,sans-Serif" font-size="10.00" fill="#000000">inject</text>
</g>
<!-- A0&#45;&gt;A1 -->
<g id="edge1" class="edge">
<title>A0&#45;&gt;A1</title>
<path fill="none" stroke="#000000" d="M174.116,-343.7616C174.116,-332.3597 174.116,-317.4342 174.116,-304.494"/>
<polygon fill="#000000" stroke="#000000" points="174.116,-294.2121 178.6161,-304.2121 174.116,-299.2121 174.1161,-304.2121 174.1161,-304.2121 174.1161,-304.2121 174.116,-299.2121 169.6161,-304.2121 174.116,-294.2121 174.116,-294.2121"/>
</g>
<!-- A2 -->
<g id="node3" class="node">
<title>A2</title>
<polygon fill="none" stroke="#000000" points="162.8924,-208 107.3396,-208 107.3396,-172 162.8924,-172 162.8924,-208"/>
<text text-anchor="middle" x="135.116" y="-187" font-family="Helvetica,sans-Serif" font-size="10.00" fill="#000000">server</text>
</g>
<!-- A1&#45;&gt;A2 -->
<g id="edge2" class="edge">
<title>A1&#45;&gt;A2</title>
<path fill="none" stroke="#000000" d="M165.8451,-257.7616C160.5193,-246.0176 153.4984,-230.5355 147.512,-217.3349"/>
<polygon fill="#000000" stroke="#000000" points="143.375,-208.2121 151.6034,-215.4608 145.44,-212.7657 147.5051,-217.3194 147.5051,-217.3194 147.5051,-217.3194 145.44,-212.7657 143.4068,-219.1779 143.375,-208.2121 143.375,-208.2121"/>
</g>
<!-- A3 -->
<g id="node4" class="node">
<title>A3</title>
<polygon fill="none" stroke="#000000" points="305.8984,-208 240.3336,-208 240.3336,-172 305.8984,-172 305.8984,-208"/>
<text text-anchor="middle" x="273.116" y="-187" font-family="Helvetica,sans-Serif" font-size="10.00" fill="#000000">IHandler</text>
</g>
<!-- A1&#45;&gt;A3 -->
<g id="edge3" class="edge">
<title>A1&#45;&gt;A3</title>
<path fill="none" stroke="#000000" stroke-dasharray="5,2" d="M195.1114,-257.7616C209.4181,-245.3335 228.5441,-228.719 244.2766,-215.0524"/>
<polygon fill="#000000" stroke="#000000" points="252.1509,-208.2121 247.5527,-218.1674 248.3762,-211.4911 244.6015,-214.7701 244.6015,-214.7701 244.6015,-214.7701 248.3762,-211.4911 241.6504,-211.3729 252.1509,-208.2121 252.1509,-208.2121"/>
</g>
<!-- A18 -->
<g id="node19" class="node">
<title>A18</title>
<polygon fill="none" stroke="#000000" points="105.3404,-122 44.8916,-122 44.8916,-86 105.3404,-86 105.3404,-122"/>
<text text-anchor="middle" x="75.116" y="-101" font-family="Helvetica,sans-Serif" font-size="10.00" fill="#000000">IServer</text>
</g>
<!-- A2&#45;&gt;A18 -->
<g id="edge18" class="edge">
<title>A2&#45;&gt;A18</title>
<path fill="none" stroke="#000000" stroke-dasharray="5,2" d="M122.3915,-171.7616C114.039,-159.7896 102.9761,-143.9328 93.6522,-130.5685"/>
<polygon fill="#000000" stroke="#000000" points="87.8221,-122.2121 97.2346,-127.8385 90.683,-126.3127 93.544,-130.4134 93.544,-130.4134 93.544,-130.4134 90.683,-126.3127 89.8534,-132.9882 87.8221,-122.2121 87.8221,-122.2121"/>
</g>
<!-- A4 -->
<g id="node5" class="node">
<title>A4</title>
<polygon fill="none" stroke="#000000" points="211.134,-122 123.098,-122 123.098,-86 211.134,-86 211.134,-122"/>
<text text-anchor="middle" x="167.116" y="-101" font-family="Helvetica,sans-Serif" font-size="10.00" fill="#000000">ILoadHandler</text>
</g>
<!-- A3&#45;&gt;A4 -->
<g id="edge4" class="edge">
<title>A3&#45;&gt;A4</title>
<path fill="none" stroke="#000000" stroke-dasharray="5,2" d="M242.8691,-165.4601C225.8014,-151.6127 204.848,-134.6128 189.3078,-122.0047"/>
<polygon fill="none" stroke="#000000" points="240.9241,-168.3891 250.8949,-171.9716 245.3344,-162.9532 240.9241,-168.3891"/>
</g>
<!-- A5 -->
<g id="node6" class="node">
<title>A5</title>
<polygon fill="none" stroke="#000000" points="317.113,-122 229.119,-122 229.119,-86 317.113,-86 317.113,-122"/>
<text text-anchor="middle" x="273.116" y="-101" font-family="Helvetica,sans-Serif" font-size="10.00" fill="#000000">IErrorHandler</text>
</g>
<!-- A3&#45;&gt;A5 -->
<g id="edge5" class="edge">
<title>A3&#45;&gt;A5</title>
<path fill="none" stroke="#000000" stroke-dasharray="5,2" d="M273.116,-161.4762C273.116,-148.5329 273.116,-133.6086 273.116,-122.2121"/>
<polygon fill="none" stroke="#000000" points="269.6161,-161.7616 273.116,-171.7616 276.6161,-161.7616 269.6161,-161.7616"/>
</g>
<!-- A6 -->
<g id="node7" class="node">
<title>A6</title>
<polygon fill="none" stroke="#000000" points="433.183,-122 335.049,-122 335.049,-86 433.183,-86 433.183,-122"/>
<text text-anchor="middle" x="384.116" y="-101" font-family="Helvetica,sans-Serif" font-size="10.00" fill="#000000">IRenderHandler</text>
</g>
<!-- A3&#45;&gt;A6 -->
<g id="edge6" class="edge">
<title>A3&#45;&gt;A6</title>
<path fill="none" stroke="#000000" stroke-dasharray="5,2" d="M304.3032,-165.837C322.263,-151.9222 344.4562,-134.7274 360.8774,-122.0047"/>
<polygon fill="none" stroke="#000000" points="302.1466,-163.0802 296.3852,-171.9716 306.4339,-168.6137 302.1466,-163.0802"/>
</g>
<!-- A7 -->
<g id="node8" class="node">
<title>A7</title>
<polygon fill="none" stroke="#000000" points="653.632,-122 550.6,-122 550.6,-86 653.632,-86 653.632,-122"/>
<text text-anchor="middle" x="602.116" y="-101" font-family="Helvetica,sans-Serif" font-size="10.00" fill="#000000">IRequestHandler</text>
</g>
<!-- A3&#45;&gt;A7 -->
<g id="edge7" class="edge">
<title>A3&#45;&gt;A7</title>
<path fill="none" stroke="#000000" stroke-dasharray="5,2" d="M316.1226,-178.7582C376.4321,-162.9934 485.9721,-134.3598 550.571,-117.4738"/>
<polygon fill="none" stroke="#000000" points="314.9579,-175.4449 306.1681,-181.3602 316.7282,-182.2174 314.9579,-175.4449"/>
</g>
<!-- A15 -->
<g id="node16" class="node">
<title>A15</title>
<polygon fill="none" stroke="#000000" points="70.3484,-36 -.1164,-36 -.1164,0 70.3484,0 70.3484,-36"/>
<text text-anchor="middle" x="35.116" y="-15" font-family="Helvetica,sans-Serif" font-size="10.00" fill="#000000">decorator</text>
</g>
<!-- A4&#45;&gt;A15 -->
<g id="edge15" class="edge">
<title>A4&#45;&gt;A15</title>
<path fill="none" stroke="#000000" d="M130.8916,-80.3993C109.3855,-66.3877 82.5429,-48.8993 62.7511,-36.0047"/>
<polygon fill="none" stroke="#000000" points="129.1552,-83.4453 139.4445,-85.9716 132.9764,-77.5802 129.1552,-83.4453"/>
</g>
<!-- A16 -->
<g id="node17" class="node">
<title>A16</title>
<polygon fill="none" stroke="#000000" points="157.7987,-36 88.4333,-36 88.4333,0 157.7987,0 157.7987,-36"/>
<text text-anchor="middle" x="123.116" y="-15" font-family="Helvetica,sans-Serif" font-size="10.00" fill="#000000">metadata</text>
</g>
<!-- A4&#45;&gt;A16 -->
<g id="edge16" class="edge">
<title>A4&#45;&gt;A16</title>
<path fill="none" stroke="#000000" d="M153.1156,-76.6356C146.3601,-63.4316 138.4395,-47.9505 132.4338,-36.2121"/>
<polygon fill="none" stroke="#000000" points="150.114,-78.4533 157.7847,-85.7616 156.3458,-75.2649 150.114,-78.4533"/>
</g>
<!-- A17 -->
<g id="node18" class="node">
<title>A17</title>
<polygon fill="none" stroke="#000000" points="230.116,-36 176.116,-36 176.116,0 230.116,0 230.116,-36"/>
<text text-anchor="middle" x="203.116" y="-15" font-family="Helvetica,sans-Serif" font-size="10.00" fill="#000000">css</text>
</g>
<!-- A4&#45;&gt;A17 -->
<g id="edge17" class="edge">
<title>A4&#45;&gt;A17</title>
<path fill="none" stroke="#000000" d="M178.7321,-76.2503C184.2238,-63.1313 190.6263,-47.8366 195.4923,-36.2121"/>
<polygon fill="none" stroke="#000000" points="175.3836,-75.1857 174.7507,-85.7616 181.8407,-77.8887 175.3836,-75.1857"/>
</g>
<!-- A11 -->
<g id="node12" class="node">
<title>A11</title>
<polygon fill="none" stroke="#000000" points="303.9114,-36 248.3206,-36 248.3206,0 303.9114,0 303.9114,-36"/>
<text text-anchor="middle" x="276.116" y="-15" font-family="Helvetica,sans-Serif" font-size="10.00" fill="#000000">bound</text>
</g>
<!-- A6&#45;&gt;A11 -->
<g id="edge11" class="edge">
<title>A6&#45;&gt;A11</title>
<path fill="none" stroke="#000000" d="M353.2984,-79.4601C335.9087,-65.6127 314.5599,-48.6128 298.7265,-36.0047"/>
<polygon fill="none" stroke="#000000" points="351.4726,-82.4803 361.4757,-85.9716 355.8331,-77.0043 351.4726,-82.4803"/>
</g>
<!-- A12 -->
<g id="node13" class="node">
<title>A12</title>
<polygon fill="none" stroke="#000000" points="376.116,-36 322.116,-36 322.116,0 376.116,0 376.116,-36"/>
<text text-anchor="middle" x="349.116" y="-15" font-family="Helvetica,sans-Serif" font-size="10.00" fill="#000000">style</text>
</g>
<!-- A6&#45;&gt;A12 -->
<g id="edge12" class="edge">
<title>A6&#45;&gt;A12</title>
<path fill="none" stroke="#000000" d="M372.8225,-76.2503C367.4834,-63.1313 361.2588,-47.8366 356.5279,-36.2121"/>
<polygon fill="none" stroke="#000000" points="369.682,-77.8187 376.6934,-85.7616 376.1656,-75.1799 369.682,-77.8187"/>
</g>
<!-- A13 -->
<g id="node14" class="node">
<title>A13</title>
<polygon fill="none" stroke="#000000" points="448.116,-36 394.116,-36 394.116,0 448.116,0 448.116,-36"/>
<text text-anchor="middle" x="421.116" y="-15" font-family="Helvetica,sans-Serif" font-size="10.00" fill="#000000">route</text>
</g>
<!-- A6&#45;&gt;A13 -->
<g id="edge13" class="edge">
<title>A6&#45;&gt;A13</title>
<path fill="none" stroke="#000000" d="M396.0548,-76.2503C401.699,-63.1313 408.2793,-47.8366 413.2806,-36.2121"/>
<polygon fill="none" stroke="#000000" points="392.6998,-75.1924 391.9627,-85.7616 399.13,-77.9589 392.6998,-75.1924"/>
</g>
<!-- A14 -->
<g id="node15" class="node">
<title>A14</title>
<polygon fill="none" stroke="#000000" points="520.116,-36 466.116,-36 466.116,0 520.116,0 520.116,-36"/>
<text text-anchor="middle" x="493.116" y="-15" font-family="Helvetica,sans-Serif" font-size="10.00" fill="#000000">state</text>
</g>
<!-- A6&#45;&gt;A14 -->
<g id="edge14" class="edge">
<title>A6&#45;&gt;A14</title>
<path fill="none" stroke="#000000" d="M415.2189,-79.4601C432.7696,-65.6127 454.3161,-48.6128 470.2961,-36.0047"/>
<polygon fill="none" stroke="#000000" points="412.6487,-77.0297 406.966,-85.9716 416.9846,-82.5252 412.6487,-77.0297"/>
</g>
<!-- A8 -->
<g id="node9" class="node">
<title>A8</title>
<polygon fill="none" stroke="#000000" points="592.116,-36 538.116,-36 538.116,0 592.116,0 592.116,-36"/>
<text text-anchor="middle" x="565.116" y="-15" font-family="Helvetica,sans-Serif" font-size="10.00" fill="#000000">/apis</text>
</g>
<!-- A7&#45;&gt;A8 -->
<g id="edge8" class="edge">
<title>A7&#45;&gt;A8</title>
<path fill="none" stroke="#000000" d="M590.1772,-76.2503C584.533,-63.1313 577.9527,-47.8366 572.9514,-36.2121"/>
<polygon fill="none" stroke="#000000" points="587.102,-77.9589 594.2693,-85.7616 593.5322,-75.1924 587.102,-77.9589"/>
</g>
<!-- A9 -->
<g id="node10" class="node">
<title>A9</title>
<polygon fill="none" stroke="#000000" points="669.7929,-36 610.4391,-36 610.4391,0 669.7929,0 669.7929,-36"/>
<text text-anchor="middle" x="640.116" y="-15" font-family="Helvetica,sans-Serif" font-size="10.00" fill="#000000">/assets</text>
</g>
<!-- A7&#45;&gt;A9 -->
<g id="edge9" class="edge">
<title>A7&#45;&gt;A9</title>
<path fill="none" stroke="#000000" d="M614.3775,-76.2503C620.1743,-63.1313 626.9324,-47.8366 632.0688,-36.2121"/>
<polygon fill="none" stroke="#000000" points="611.0151,-75.2001 610.1748,-85.7616 617.4179,-78.0293 611.0151,-75.2001"/>
</g>
<!-- A10 -->
<g id="node11" class="node">
<title>A10</title>
<polygon fill="none" stroke="#000000" points="746.1816,-36 688.0504,-36 688.0504,0 746.1816,0 746.1816,-36"/>
<text text-anchor="middle" x="717.116" y="-15" font-family="Helvetica,sans-Serif" font-size="10.00" fill="#000000">/routes</text>
</g>
<!-- A7&#45;&gt;A10 -->
<g id="edge10" class="edge">
<title>A7&#45;&gt;A10</title>
<path fill="none" stroke="#000000" d="M634.427,-79.837C653.034,-65.9222 676.027,-48.7274 693.04,-36.0047"/>
<polygon fill="none" stroke="#000000" points="632.136,-77.1798 626.2238,-85.9716 636.3282,-82.7856 632.136,-77.1798"/>
</g>
</g>
</svg>
